<svg xmlns="http://www.w3.org/2000/svg" xmlns:xlink="http://www.w3.org/1999/xlink" xmlns:fi="http://pattern.flaticon.com/" x="0" y="0" width="1920" height="1080" viewBox="0 0 1920 1080"><rect x="0px" y="0px" width="100%" height="100%" opacity="1" fill="#ffffff"/><defs><g transform="matrix(0.1171875 0 0 0.1171875 314 251)" id="L1_0"><path d="m196 90c0 49.707031-40.292969 90-90 90s-90-40.292969-90-90 40.292969-90 90-90 90 40.292969 90 90zm0 0" fill="#465a61"/><path d="m376 90c0 49.707031-40.292969 90-90 90s-90-40.292969-90-90 40.292969-90 90-90 90 40.292969 90 90zm0 0" fill="#3b4a51"/><path d="m298.898438 496.699219-25.796876 15.300781-77.101562-136.699219-77.101562 136.699219-25.796876-15.300781 90-159.5 12.898438 7.800781 12.898438-7.800781zm0 0" fill="#465a61"/><path d="m298.898438 496.699219-25.796876 15.300781-77.101562-136.699219v-30.300781l12.898438-7.800781zm0 0" fill="#3b4a51"/><path d="m372.367188 210.453125v119.09375l139.632812 34.671875v-188.4375zm0 0" fill="#3b4a51"/><path d="m0 180v180h391v-180zm0 0" fill="#697c86"/><path d="m196 180h195v180h-195zm0 0" fill="#596c76"/><path d="m106 135c-24.8125 0-45-20.1875-45-45s20.1875-45 45-45 45 20.1875 45 45-20.1875 45-45 45zm0 0" fill="#ececf1"/><path d="m316 233.785156 21.210938 21.210938-21.210938 21.210937-21.210938-21.210937zm0 0" fill="#ff4949"/><path d="m256 233.785156 21.210938 21.210938-21.210938 21.210937-21.210938-21.210937zm0 0" fill="#ff4949"/><path d="m106 75c-8.277344 0-15 6.722656-15 15s6.722656 15 15 15 15-6.722656 15-15-6.722656-15-15-15zm0 0" fill="#465a61"/><path d="m286 135c-24.8125 0-45-20.1875-45-45s20.1875-45 45-45 45 20.1875 45 45-20.1875 45-45 45zm0 0" fill="#e2e2e7"/><path d="m286 75c-8.277344 0-15 6.722656-15 15s6.722656 15 15 15 15-6.722656 15-15-6.722656-15-15-15zm0 0" fill="#3b4a51"/></g><g transform="matrix(0.1171875 0 0 0.1171875 241 140)" id="L1_1"><path d="m407 150v-30h105v75c0 24.8125-20.1875 45-45 45h-60v-30h60c8.277344 0 15-6.722656 15-15v-45zm0 0" fill="#465a61"/><path d="m60 285h30v75h-30zm0 0" fill="#596c76"/><path d="m211 285h30v75h-30zm0 0" fill="#596c76"/><path d="m271 285h30v75h-30zm0 0" fill="#465a61"/><path d="m422 285h30v75h-30zm0 0" fill="#465a61"/><path d="m105 150v-30h-105v75c0 24.8125 20.1875 45 45 45h60v-30h-60c-8.277344 0-15-6.722656-15-15v-45zm0 0" fill="#596c76"/><path d="m181 120h150v30h-150zm0 0" fill="#596c76"/><path d="m256 120h75v30h-75zm0 0" fill="#465a61"/><path d="m452 195v-150c0-24.851562-20.148438-45-45-45h-91c-24.851562 0-45 20.148438-45 45v150c0 8.398438-6.597656 15-15 15l15 30h181l15-30c-8.402344 0-15-6.601562-15-15zm0 0" fill="#ff4949"/><path d="m241 195v-150c0-24.851562-20.148438-45-45-45h-91c-24.851562 0-45 20.148438-45 45v150c0 8.398438-6.597656 15-15 15l15 30h181l15-30c-8.402344 0-15-6.601562-15-15zm0 0" fill="#ff6c6c"/><path d="m256 210h-211c-8.285156 0-15 6.714844-15 15v30c0 24.851562 20.148438 45 45 45h151c16.570312 0 30-13.433594 30-30 0 16.566406 13.429688 30 30 30h151c24.851562 0 45-20.148438 45-45v-30c0-8.285156-6.714844-15-15-15zm0 0" fill="#ff8597"/><path d="m437 300h-151c-16.570312 0-30-13.429688-30-30v-60h211c8.285156 0 15 6.714844 15 15v30c0 24.851562-20.148438 45-45 45zm0 0" fill="#ff6c6c"/></g><g transform="matrix(0.1171875 0 0 0.1171875 262 311)" id="L1_2"><path d="m197.898438 256.800781v134.199219h-60v-134.199219l30-19.800781zm0 0" fill="#fdbf00"/><path d="m197.898438 391h-30v-154l30 19.800781zm0 0" fill="#ff9f00"/><path d="m335.300781 120.898438-115.5-16.800782-51.902343-104.097656-51.898438 104.097656-115.5 16.800782 83.699219 81.601562-19.800781 115.199219 103.5-54.601563 103.5 54.601563-19.800782-115.199219zm0 0" fill="#ffd400"/><path d="m272.898438 482h-210l75-121h60zm0 0" fill="#ffd400"/><path d="m197.898438 361 75 121h-105v-121zm0 0" fill="#fdbf00"/><path d="m271.398438 317.699219-103.5-54.601563v-263.097656l51.902343 104.097656 115.5 16.800782-83.703125 81.601562zm0 0" fill="#fdbf00"/><path d="m32.898438 452h270v60h-270zm0 0" fill="#596c76"/><path d="m167.898438 452h135v60h-135zm0 0" fill="#3b4a51"/></g><g transform="matrix(0.1171875 0 0 0.1171875 73 64)" id="L1_3"><path d="m238.15625 425.210938c-4.859375 0-9.8125-.585938-14.765625-1.832032l-88.621094-24.5625c-15.921875-3.972656-29.207031-13.992187-37.410156-28.183594-8.203125-14.210937-10.242187-30.71875-5.742187-46.496093 8.933593-31.273438 40.589843-49.703125 72.246093-41.746094l88.636719 24.578125c15.921875 3.96875 29.210938 13.988281 37.410156 28.195312 8.203125 14.210938 10.242188 30.71875 5.742188 46.480469-7.558594 26.398438-31.316406 43.566407-57.496094 43.566407zm-88.929688-114.621094c-13.109374 0-24.988281 8.582031-28.753906 21.78125-2.253906 7.894531-1.246094 16.140625 2.855469 23.246094 4.117187 7.105468 10.753906 12.113281 18.707031 14.105468l88.652344 24.5625c15.628906 3.925782 31.640625-5.226562 36.121094-20.886718 2.242187-7.867188 1.230468-16.128907-2.882813-23.234376-4.105469-7.101562-10.738281-12.113281-18.691406-14.105468l-88.640625-24.5625c-2.472656-.613282-4.949219-.90625-7.367188-.90625zm0 0" fill="#3b4a51"/><path d="m512 210.5c0 49.5-33.601562 90-75 90v-180c41.398438 0 75 40.5 75 90zm0 0" fill="#e2e2e7"/><path d="m512 210.5c0 49.5-33.601562 90-75 90v-90zm0 0" fill="#babac0"/><path d="m432.800781 31.101562v358.796876l-71.800781-20.097657-30-150 1.800781-9.300781 28.199219-159.300781zm0 0" fill="#ffe470"/><path d="m332.800781 210.5h100v179.398438l-71.800781-20.097657-30-150zm0 0" fill="#fdbf00"/><path d="m361 51.199219v318.601562l-30-8.703125-320.199219-91.199218v-118.800782l320.199219-91.199218zm0 0" fill="#ffd400"/><path d="m10.800781 210.5h350.199219v159.300781l-30-8.703125-320.199219-91.199218zm0 0" fill="#ff9f00"/><path d="m422 .5h30v420h-30zm0 0" fill="#596c76"/><path d="m0 120.5h30v180h-30zm0 0" fill="#596c76"/><g fill="#3b4a51"><path d="m0 210.5h30v90h-30zm0 0"/><path d="m422 210.5h30v210h-30zm0 0"/></g></g><g transform="matrix(0.11718673259019852 0 0 0.11718673259019852 51 218)" id="L1_4"><path d="m0 490.785156 53.035156-53.035156 21.210938 21.214844-53.03125 53.03125zm0 0" fill="#596c76"/><path d="m21.214844 512.003906-10.605469-10.605468 53.03125-53.035157 10.605469 10.609375zm0 0" fill="#3b4a51"/><path d="m21.214844 427.144531 53.035156-53.03125 63.636719 63.636719-53.03125 53.035156zm0 0" fill="#ff6c6c"/><path d="m84.855469 490.789062-31.820313-31.816406 53.03125-53.035156 31.820313 31.820312zm0 0" fill="#ff193d"/><path d="m379.53125 265.691406-231.671875 203.246094-104.792969-104.792969 203.246094-231.671875zm0 0" fill="#ff8597"/><path d="m379.53125 265.691406-231.671875 203.246094-52.394531-52.398438 217.457031-217.457031zm0 0" fill="#ff4949"/><path d="m472.871094 230.054688c-23.546875 23.546874-63.429688 41.789062-103.945313 39.453124l-126.429687-126.429687c-2.335938-40.515625 15.910156-80.398437 39.453125-103.945313 3.609375-3.605468 7.640625-6.363281 11.667969-9.542968l115.613281 73.183594 73.183593 115.613281c-3.179687 4.027343-5.9375 8.0625-9.542968 11.667969zm0 0" fill="#e2e2e7"/><path d="m472.871094 230.054688c-23.546875 23.546874-63.429688 41.789062-103.945313 39.453124l-63.214843-63.214843 103.519531-103.519531 73.1875 115.613281c-3.183594 4.027343-5.941407 8.0625-9.546875 11.667969zm0 0" fill="#babac0"/><path d="m482.414062 218.386719-188.796874-188.796875c52.820312-42.214844 130.25-39.457032 179.253906 9.542968 49 49.003907 51.757812 126.433594 9.542968 179.253907zm0 0" fill="#ececf1"/><path d="m482.414062 218.386719-94.398437-94.398438 84.855469-84.855469c49 49.003907 51.757812 126.433594 9.542968 179.253907zm0 0" fill="#d3d3d8"/><path d="m218.308594 123.988281 21.214844-21.210937 169.703124 169.703125-21.214843 21.210937zm0 0" fill="#596c76"/><path d="m388.019531 293.695312-84.855469-84.851562 21.214844-21.210938 84.851563 84.851563zm0 0" fill="#3b4a51"/><path d="m207.703125 283.085938 42.425781-42.425782 21.210938 21.210938-42.425782 42.429687zm0 0" fill="#596c76"/><path d="m260.738281 251.261719 10.605469 10.609375-42.425781 42.425781-10.605469-10.609375zm0 0" fill="#3b4a51"/></g><g transform="matrix(0.1171875 0 0 0.1171875 174 49)" id="L1_5"><path d="m512 512h-30c0-33.089844-27.910156-61-61-61h-6.253906v-30h6.253906c49.628906 0 91 41.371094 91 91zm0 0" fill="#465a61"/><path d="m482 256c0 124.199219-101.800781 225-226 225s-226-100.800781-226-225 101.800781-226 226-226 226 101.800781 226 226zm0 0" fill="#697c86"/><path d="m482 256c0 124.199219-101.800781 225-226 225v-451c124.199219 0 226 101.800781 226 226zm0 0" fill="#596c76"/><path d="m391 256c0 74.699219-60.300781 135-135 135s-135-60.300781-135-135 60.300781-135 135-135 135 60.300781 135 135zm0 0" fill="#465a61"/><path d="m391 256c0 74.699219-60.300781 135-135 135v-270c74.699219 0 135 60.300781 135 135zm0 0" fill="#3b4a51"/><path d="m256 0c-140.699219 0-256 115.300781-256 256s115.300781 256 256 256 256-115.300781 256-256-115.300781-256-256-256zm0 76c33 0 60 27 60 60s-27 60-60 60-60-27-60-60 27-60 60-60zm-120 240c-33 0-60-27-60-60s27-60 60-60 60 27 60 60-27 60-60 60zm120 120c-33 0-60-27-60-60s27-60 60-60 60 27 60 60-27 60-60 60zm120-120c-33 0-60-27-60-60s27-60 60-60 60 27 60 60-27 60-60 60zm0 0" fill="#e2e2e7"/><path d="m256 0v76c33 0 60 27 60 60s-27 60-60 60v120c33 0 60 27 60 60s-27 60-60 60v76c140.699219 0 256-115.300781 256-256s-115.300781-256-256-256zm120 316c-33 0-60-27-60-60s27-60 60-60 60 27 60 60-27 60-60 60zm0 0" fill="#d3d3d8"/><path d="m234.695312 256 21.300782-21.300781 21.300781 21.300781-21.300781 21.300781zm0 0" fill="#5a5a5a"/><path d="m277.300781 256-21.300781 21.300781v-42.601562zm0 0" fill="#444444"/></g></defs><g fi:class="KUsePattern"><pattern id="pattern_L1_0" width="350" height="350" patternUnits="userSpaceOnUse"><use xlink:href="#L1_0" x="-350" y="-350"/><use xlink:href="#L1_0" x="0" y="-350"/><use xlink:href="#L1_0" x="350" y="-350"/><use xlink:href="#L1_0" x="-350" y="0"/><use xlink:href="#L1_0" x="0" y="0"/><use xlink:href="#L1_0" x="350" y="0"/><use xlink:href="#L1_0" x="-350" y="350"/><use xlink:href="#L1_0" x="0" y="350"/><use xlink:href="#L1_0" x="350" y="350"/></pattern><rect x="0" y="0" width="100%" height="100%" fill="url(#pattern_L1_0)"/></g><g fi:class="KUsePattern"><pattern id="pattern_L1_1" width="350" height="350" patternUnits="userSpaceOnUse"><use xlink:href="#L1_1" x="-350" y="-350"/><use xlink:href="#L1_1" x="0" y="-350"/><use xlink:href="#L1_1" x="350" y="-350"/><use xlink:href="#L1_1" x="-350" y="0"/><use xlink:href="#L1_1" x="0" y="0"/><use xlink:href="#L1_1" x="350" y="0"/><use xlink:href="#L1_1" x="-350" y="350"/><use xlink:href="#L1_1" x="0" y="350"/><use xlink:href="#L1_1" x="350" y="350"/></pattern><rect x="0" y="0" width="100%" height="100%" fill="url(#pattern_L1_1)"/></g><g fi:class="KUsePattern"><pattern id="pattern_L1_2" width="350" height="350" patternUnits="userSpaceOnUse"><use xlink:href="#L1_2" x="-350" y="-350"/><use xlink:href="#L1_2" x="0" y="-350"/><use xlink:href="#L1_2" x="350" y="-350"/><use xlink:href="#L1_2" x="-350" y="0"/><use xlink:href="#L1_2" x="0" y="0"/><use xlink:href="#L1_2" x="350" y="0"/><use xlink:href="#L1_2" x="-350" y="350"/><use xlink:href="#L1_2" x="0" y="350"/><use xlink:href="#L1_2" x="350" y="350"/></pattern><rect x="0" y="0" width="100%" height="100%" fill="url(#pattern_L1_2)"/></g><g fi:class="KUsePattern"><pattern id="pattern_L1_3" width="350" height="350" patternUnits="userSpaceOnUse"><use xlink:href="#L1_3" x="-350" y="-350"/><use xlink:href="#L1_3" x="0" y="-350"/><use xlink:href="#L1_3" x="350" y="-350"/><use xlink:href="#L1_3" x="-350" y="0"/><use xlink:href="#L1_3" x="0" y="0"/><use xlink:href="#L1_3" x="350" y="0"/><use xlink:href="#L1_3" x="-350" y="350"/><use xlink:href="#L1_3" x="0" y="350"/><use xlink:href="#L1_3" x="350" y="350"/></pattern><rect x="0" y="0" width="100%" height="100%" fill="url(#pattern_L1_3)"/></g><g fi:class="KUsePattern"><pattern id="pattern_L1_4" width="350" height="350" patternUnits="userSpaceOnUse"><use xlink:href="#L1_4" x="-350" y="-350"/><use xlink:href="#L1_4" x="0" y="-350"/><use xlink:href="#L1_4" x="350" y="-350"/><use xlink:href="#L1_4" x="-350" y="0"/><use xlink:href="#L1_4" x="0" y="0"/><use xlink:href="#L1_4" x="350" y="0"/><use xlink:href="#L1_4" x="-350" y="350"/><use xlink:href="#L1_4" x="0" y="350"/><use xlink:href="#L1_4" x="350" y="350"/></pattern><rect x="0" y="0" width="100%" height="100%" fill="url(#pattern_L1_4)"/></g><g fi:class="KUsePattern"><pattern id="pattern_L1_5" width="350" height="350" patternUnits="userSpaceOnUse"><use xlink:href="#L1_5" x="-350" y="-350"/><use xlink:href="#L1_5" x="0" y="-350"/><use xlink:href="#L1_5" x="350" y="-350"/><use xlink:href="#L1_5" x="-350" y="0"/><use xlink:href="#L1_5" x="0" y="0"/><use xlink:href="#L1_5" x="350" y="0"/><use xlink:href="#L1_5" x="-350" y="350"/><use xlink:href="#L1_5" x="0" y="350"/><use xlink:href="#L1_5" x="350" y="350"/></pattern><rect x="0" y="0" width="100%" height="100%" fill="url(#pattern_L1_5)"/></g></svg>